<svg class="hidden" xmlns="http://www.w3.org/2000/svg">
		<symbol viewBox="0 0 24 24" id="facebook">
 			<path d="M12,2C6.477,2,2,6.477,2,12c0,5.013,3.693,9.153,8.505,9.876V14.65H8.031v-2.629h2.474v-1.749 c0-2.896,1.411-4.167,3.818-4.167c1.153,0,1.762,0.085,2.051,0.124v2.294h-1.642c-1.022,0-1.379,0.969-1.379,2.061v1.437h2.995 l-0.406,2.629h-2.588v7.247C18.235,21.236,22,17.062,22,12C22,6.477,17.523,2,12,2z"/> 
			</symbol>

		<symbol viewBox="0 0 24 24" id="messender">
		<path d="M12,2C6.486,2,2,6.262,2,11.5c0,2.545,1.088,4.988,3,6.772v4.346l4.08-2.039C10.039,20.858,11.02,21,12,21 c5.514,0,10-4.262,10-9.5S17.514,2,12,2z M13.167,14.417l-2.917-2.333L5,14.417l5.833-5.833l2.917,2.333L19,8.583L13.167,14.417z"/> 
		</symbol>

		<symbol viewBox="0 0 24 24" id="telegram">
		<path d="M 20.302734 2.984375 C 20.013769 2.996945 19.748583 3.080055 19.515625 3.171875 C 19.300407 3.256634 18.52754 3.5814726 17.296875 4.0976562 C 16.06621 4.61384 14.435476 5.2982348 12.697266 6.0292969 C 9.2208449 7.4914211 5.314238 9.1361259 3.3125 9.9785156 C 3.243759 10.007156 2.9645852 10.092621 2.65625 10.328125 C 2.3471996 10.564176 2.0039062 11.076462 2.0039062 11.636719 C 2.0039062 12.088671 2.2295201 12.548966 2.5019531 12.8125 C 2.7743861 13.076034 3.0504903 13.199244 3.28125 13.291016 L 3.28125 13.289062 C 4.0612776 13.599827 6.3906939 14.531938 6.9453125 14.753906 C 7.1420423 15.343433 7.9865895 17.867278 8.1875 18.501953 L 8.1855469 18.501953 C 8.3275588 18.951162 8.4659791 19.243913 8.6582031 19.488281 C 8.7543151 19.610465 8.8690398 19.721184 9.0097656 19.808594 C 9.0637596 19.842134 9.1235454 19.868148 9.1835938 19.892578 C 9.191962 19.896131 9.2005867 19.897012 9.2089844 19.900391 L 9.1855469 19.894531 C 9.2029579 19.901531 9.2185841 19.911859 9.2363281 19.917969 C 9.2652427 19.927926 9.2852873 19.927599 9.3242188 19.935547 C 9.4612233 19.977694 9.5979794 20.005859 9.7246094 20.005859 C 10.26822 20.005859 10.601562 19.710937 10.601562 19.710938 L 10.623047 19.695312 L 12.970703 17.708984 L 15.845703 20.369141 C 15.898217 20.443289 16.309604 21 17.261719 21 C 17.829844 21 18.279025 20.718791 18.566406 20.423828 C 18.853787 20.128866 19.032804 19.82706 19.113281 19.417969 L 19.115234 19.416016 C 19.179414 19.085834 21.931641 5.265625 21.931641 5.265625 L 21.925781 5.2890625 C 22.011441 4.9067171 22.036735 4.5369631 21.935547 4.1601562 C 21.834358 3.7833495 21.561271 3.4156252 21.232422 3.2226562 C 20.903572 3.0296874 20.591699 2.9718046 20.302734 2.984375 z M 19.908203 5.1738281 C 19.799442 5.7198576 17.33401 18.105877 17.181641 18.882812 L 13.029297 15.041016 L 10.222656 17.414062 L 11 14.375 C 11 14.375 16.362547 8.9468594 16.685547 8.6308594 C 16.945547 8.3778594 17 8.2891719 17 8.2011719 C 17 8.0841719 16.939781 8 16.800781 8 C 16.675781 8 16.506016 8.1197812 16.416016 8.1757812 C 15.272368 8.8887854 10.401283 11.664685 8.0058594 13.027344 C 7.8617016 12.96954 5.6973962 12.100458 4.53125 11.634766 C 6.6055146 10.76177 10.161156 9.2658083 13.472656 7.8730469 C 15.210571 7.142109 16.840822 6.4570977 18.070312 5.9414062 C 19.108158 5.5060977 19.649538 5.2807035 19.908203 5.1738281 z M 17.152344 19.025391 C 17.152344 19.025391 17.154297 19.025391 17.154297 19.025391 C 17.154252 19.025621 17.152444 19.03095 17.152344 19.03125 C 17.153615 19.024789 17.15139 19.03045 17.152344 19.025391 z"/>
		</symbol>

		<symbol viewBox="0 0 24 24" id="pinterest">
		<path d="M12,2C6.477,2,2,6.477,2,12c0,4.237,2.636,7.855,6.356,9.312c-0.087-0.791-0.167-2.005,0.035-2.868 c0.182-0.78,1.172-4.971,1.172-4.971s-0.299-0.599-0.299-1.484c0-1.391,0.806-2.428,1.809-2.428c0.853,0,1.265,0.641,1.265,1.408 c0,0.858-0.546,2.141-0.828,3.329c-0.236,0.996,0.499,1.807,1.481,1.807c1.777,0,3.143-1.874,3.143-4.579 c0-2.394-1.72-4.068-4.177-4.068c-2.845,0-4.515,2.134-4.515,4.34c0,0.859,0.331,1.781,0.744,2.282 c0.082,0.099,0.093,0.186,0.069,0.287c-0.076,0.316-0.244,0.995-0.277,1.134c-0.043,0.183-0.145,0.222-0.334,0.133 c-1.249-0.582-2.03-2.408-2.03-3.874c0-3.154,2.292-6.052,6.608-6.052c3.469,0,6.165,2.472,6.165,5.776 c0,3.447-2.173,6.22-5.189,6.22c-1.013,0-1.966-0.527-2.292-1.148c0,0-0.502,1.909-0.623,2.378 c-0.226,0.868-0.835,1.958-1.243,2.622C9.975,21.843,10.969,22,12,22c5.522,0,10-4.478,10-10S17.523,2,12,2z"/> 
		</symbol>

</svg>




